<svg width="513" height="52" viewBox="0 0 513 52" fill="none" xmlns="http://www.w3.org/2000/svg">
<path d="M0 12C0 5.37258 5.37258 0 12 0H501C507.627 0 513 5.37258 513 12V40C513 46.6274 507.627 52 501 52H12C5.3726 52 0 46.6274 0 40V12Z" fill="white"/>
<path d="M12 0.5H501C507.351 0.5 512.5 5.64873 512.5 12V40C512.5 46.3513 507.351 51.5 501 51.5H12C5.64874 51.5 0.5 46.3513 0.5 40V12C0.5 5.64873 5.64873 0.5 12 0.5Z" stroke="#B7AEA1" stroke-opacity="0.44"/>
<path d="M33.0015 23.25C30.4942 25.1337 27.3775 26.25 24 26.25C20.6225 26.25 17.5058 25.1337 14.9985 23.25M14.75 18.75H33.25V33.25H14.75V18.75Z" stroke="#1B1915" stroke-width="1.5" stroke-linecap="round" stroke-linejoin="round"/>
<path d="M51.856 25.144C53.024 25.352 54.304 26.264 54.304 27.912C54.304 29.976 52.688 31 50.688 31H45.648V19.8H50.464C52.768 19.8 53.904 20.936 53.904 22.552C53.904 24.12 52.8 24.936 51.856 25.144ZM50.288 21.128H47.088V24.536H50.288C51.616 24.536 52.416 23.848 52.416 22.776C52.416 21.704 51.616 21.128 50.288 21.128ZM47.088 29.672H50.48C51.904 29.672 52.768 28.904 52.768 27.736C52.768 26.568 51.904 25.832 50.48 25.832H47.088V29.672ZM59.0751 31.224C57.2511 31.224 56.4351 30.008 56.4351 28.232V23.08H57.7951V27.912C57.7951 29.416 58.4831 30.024 59.5391 30.024C61.4591 30.024 61.6991 27.992 61.6991 26.616V23.08H63.0591V31H61.7311V29.576C61.4911 30.04 60.7551 31.224 59.0751 31.224ZM68.4223 31.224C66.7103 31.224 65.3183 30.392 64.9983 28.952L66.2943 28.536C66.4863 29.368 67.0943 30.104 68.4383 30.104C69.6063 30.104 70.2303 29.656 70.2303 28.92C70.2303 28.312 69.8463 27.88 68.7583 27.656L67.7663 27.464C66.4703 27.208 65.3183 26.696 65.3183 25.208C65.3183 23.816 66.6303 22.856 68.2623 22.856C70.1823 22.856 71.1103 23.848 71.4143 24.84L70.2143 25.304C70.0383 24.76 69.5263 23.944 68.2463 23.944C67.1423 23.944 66.6303 24.488 66.6303 25.08C66.6303 25.624 66.9023 25.96 67.9903 26.168L68.9823 26.36C69.9583 26.584 71.6063 27.128 71.6063 28.808C71.6063 30.248 70.4703 31.224 68.4223 31.224ZM75.0329 21.544H73.5929V19.8H75.0329V21.544ZM75.0009 31H73.6409V23.08H75.0009V31ZM79.0478 31H77.7038V23.08H79.0158V24.472C79.1598 24.056 79.9438 22.856 81.6398 22.856C83.6078 22.856 84.4078 24.104 84.4078 25.864V31H83.0478V26.184C83.0478 24.68 82.3598 24.04 81.2558 24.04C79.1438 24.04 79.0478 26.344 79.0478 27.496V31ZM90.0086 31.224C87.8326 31.224 86.3926 29.752 86.3926 27.032C86.3926 24.456 87.9446 22.856 89.9446 22.856C92.2646 22.856 93.6726 24.792 93.4006 27.352H87.7526C87.8166 29.4 88.9206 30.072 90.0566 30.072C91.3526 30.072 91.9606 29.112 92.2006 28.504L93.4486 28.952C92.9046 30.376 91.6726 31.224 90.0086 31.224ZM87.7846 26.264H92.0246C92.0086 24.728 91.0486 23.944 89.9446 23.944C88.8246 23.944 87.8966 24.84 87.7846 26.264ZM98.2348 31.224C96.5228 31.224 95.1308 30.392 94.8108 28.952L96.1068 28.536C96.2988 29.368 96.9068 30.104 98.2508 30.104C99.4188 30.104 100.043 29.656 100.043 28.92C100.043 28.312 99.6588 27.88 98.5708 27.656L97.5788 27.464C96.2828 27.208 95.1308 26.696 95.1308 25.208C95.1308 23.816 96.4428 22.856 98.0748 22.856C99.9948 22.856 100.923 23.848 101.227 24.84L100.027 25.304C99.8508 24.76 99.3388 23.944 98.0588 23.944C96.9548 23.944 96.4428 24.488 96.4428 25.08C96.4428 25.624 96.7148 25.96 97.8028 26.168L98.7948 26.36C99.7708 26.584 101.419 27.128 101.419 28.808C101.419 30.248 100.283 31.224 98.2348 31.224ZM106.125 31.224C104.413 31.224 103.021 30.392 102.701 28.952L103.997 28.536C104.189 29.368 104.797 30.104 106.141 30.104C107.309 30.104 107.933 29.656 107.933 28.92C107.933 28.312 107.549 27.88 106.461 27.656L105.469 27.464C104.173 27.208 103.021 26.696 103.021 25.208C103.021 23.816 104.333 22.856 105.965 22.856C107.885 22.856 108.813 23.848 109.117 24.84L107.917 25.304C107.741 24.76 107.229 23.944 105.949 23.944C104.845 23.944 104.333 24.488 104.333 25.08C104.333 25.624 104.605 25.96 105.693 26.168L106.685 26.36C107.661 26.584 109.309 27.128 109.309 28.808C109.309 30.248 108.173 31.224 106.125 31.224ZM123.644 31H115.804V19.8H123.644V21.128H117.244V24.536H121.996V25.848H117.244V29.672H123.644V31ZM126.938 31H125.594V23.08H126.906V24.328C127.194 23.768 127.898 22.856 129.338 22.856C130.522 22.856 131.434 23.512 131.818 24.568C132.138 23.832 132.874 22.856 134.49 22.856C136.266 22.856 137.258 23.896 137.258 25.768V31H135.898V26.136C135.898 24.632 135.178 24.056 134.122 24.056C132.138 24.056 132.074 26.12 132.074 27.192V31H130.746V26.152C130.746 24.632 130.026 24.056 128.97 24.056C127.018 24.056 126.938 26.12 126.938 27.24V31ZM141.844 31.224C140.308 31.224 139.316 30.376 139.316 28.984C139.316 26.808 141.732 26.04 144.356 25.832V25.56C144.356 24.616 143.828 24.008 142.596 24.008C141.188 24.008 140.692 24.792 140.468 25.464L139.156 25.032C139.412 23.992 140.516 22.856 142.596 22.856C144.74 22.856 145.7 23.96 145.7 25.608V29.304C145.7 29.72 145.844 29.832 146.228 29.832H147.012V31H145.94C144.836 31 144.564 30.504 144.484 29.72C143.94 30.632 143.14 31.224 141.844 31.224ZM142.196 30.104C143.252 30.104 144.356 29.384 144.356 27.672V26.824C142.388 27.016 140.708 27.544 140.708 28.872C140.708 29.624 141.22 30.104 142.196 30.104ZM149.877 21.544H148.437V19.8H149.877V21.544ZM149.845 31H148.485V23.08H149.845V31ZM153.892 31H152.548V19.8H153.892V31Z" fill="#1B1915"/>
</svg>
